<svg xmlns="http://www.w3.org/2000/svg" viewBox="0 0 132 19.12"><defs><style>.cls-1{fill:#231f20;}.cls-2{fill:#91c332;}</style></defs><g id="Layer_2" data-name="Layer 2"><g id="Elements"><path class="cls-1" d="M126.45,12.53a2.13,2.13,0,0,0,.18.88,2.28,2.28,0,0,0,.47.69,2,2,0,0,0,.71.45,2.42,2.42,0,0,0,.85.16h2.82a.46.46,0,0,1,.37.17.51.51,0,0,1,.15.37.53.53,0,0,1-.15.39.5.5,0,0,1-.37.17h-2.82a3.29,3.29,0,0,1-1.26-.25,3.35,3.35,0,0,1-1-.68,3.59,3.59,0,0,1-.7-1,3.33,3.33,0,0,1-.26-1.31V10a3.33,3.33,0,0,1,.26-1.31,3.46,3.46,0,0,1,.7-1,3.05,3.05,0,0,1,1-.69,3.29,3.29,0,0,1,1.26-.24h2.82a.49.49,0,0,1,.37.16.55.55,0,0,1,.15.38.56.56,0,0,1-.15.39.52.52,0,0,1-.37.16h-2.82a2.22,2.22,0,0,0-.85.16,2.13,2.13,0,0,0-.71.44,2.46,2.46,0,0,0-.47.7,2.14,2.14,0,0,0-.18.89Z"/><path class="cls-1" d="M119.17,14.87a.5.5,0,0,0-.38-.17h-2.5V7.24a.5.5,0,0,0-.17-.38.55.55,0,0,0-.38-.15.53.53,0,0,0-.39.15.49.49,0,0,0-.16.38v8a1,1,0,0,0,0,.17s0,0,0,0a.35.35,0,0,0,0,.08.47.47,0,0,0,.06.09.49.49,0,0,0,.37.16h3.08a.47.47,0,0,0,.38-.17.51.51,0,0,0,.15-.37A.53.53,0,0,0,119.17,14.87Z"/><path class="cls-1" d="M125,14.87a.5.5,0,0,0-.38-.17h-2.5V7.24a.47.47,0,0,0-.17-.38.55.55,0,0,0-.38-.15.56.56,0,0,0-.39.15.53.53,0,0,0-.16.38v8a.53.53,0,0,0,0,.17v0a.35.35,0,0,0,0,.08.47.47,0,0,0,.06.09.49.49,0,0,0,.37.16h3.08a.47.47,0,0,0,.38-.17.51.51,0,0,0,.15-.37A.53.53,0,0,0,125,14.87Z"/><path class="cls-2" d="M3.1,15A5.55,5.55,0,0,0,.54,16.28c-.37.33-.65.75-.5,1.07a9.17,9.17,0,0,0,.61,1.3c.26.42.35.55.55.41a10.43,10.43,0,0,0,2.2-3.79C3.43,15,3.32,15,3.1,15Zm15-15A25.73,25.73,0,0,0,13.71.6c-3.84.67-8.51,2-10.79,5.11a6.54,6.54,0,0,0,.77,8.77c2,2.16,6.16,2.28,9.2-.28,2.23-1.87,3.43-5.4,4.18-8.82.28-1.25.59-2.56.79-3.7C18,1.07,18.25.06,18.08,0Z"/><path class="cls-1" d="M34.36,6.55a4.76,4.76,0,0,0-4.29,2.28,4.84,4.84,0,0,0-.6,2.45,5.15,5.15,0,0,0,1.13,3.25A4.52,4.52,0,0,0,34.12,16a4.2,4.2,0,0,0,3.71-1.59.79.79,0,0,0-1.23-1,3.26,3.26,0,0,1-2.37,1,3,3,0,0,1-2.86-2.53h6.24c.44,0,1-.33.88-1.2s-1-4.17-4.13-4.17m-3,3.9A2.74,2.74,0,0,1,34.14,8a2.48,2.48,0,0,1,2.46,2.43Zm24.91-3.9A4.76,4.76,0,0,0,52,8.83a4.84,4.84,0,0,0-.6,2.45,5.21,5.21,0,0,0,1.13,3.25A4.52,4.52,0,0,0,56.07,16a4.2,4.2,0,0,0,3.71-1.59.79.79,0,0,0-1.23-1,3.26,3.26,0,0,1-2.37,1,3,3,0,0,1-2.86-2.53h6.25c.43,0,1-.33.87-1.2s-1-4.17-4.13-4.17m-3,3.9A2.74,2.74,0,0,1,56.09,8a2.48,2.48,0,0,1,2.46,2.43Zm-8-3.75a3.87,3.87,0,0,0-1-.15A3.22,3.22,0,0,0,41.52,8V7.74c0-1-.64-1.19-1-1.19a.83.83,0,0,0-.92.9v7.36c0,1,.44,1.19.85,1.19a1,1,0,0,0,1-1.17v-4a2.73,2.73,0,0,1,1.33-2.36A2.69,2.69,0,0,1,45,8.4a.87.87,0,1,0,.35-1.7m-16.95,0a1.07,1.07,0,0,0-1.47.68l-2.45,6.31c0,.07-.07.09-.1,0L21.89,7.33a1.07,1.07,0,0,0-1.47-.68c-.44.25-.58.64-.34,1.37l2.85,6.86A1.49,1.49,0,0,0,24.4,16c.75,0,1.11-.27,1.46-1.12L28.72,8c.24-.73.09-1.12-.35-1.37M50.94,14.4c-.38-.27-.67-.05-1.21,0-.78.06-1-.79-1-1.33V8H50.1c1.25,0,1.27-1.47.15-1.47H48.72V5.13c0-.82-.4-1.14-.89-1.14s-1,.32-1,1.14v7.56a3.28,3.28,0,0,0,.94,2.74,2.88,2.88,0,0,0,2.81.36c.82-.35.73-1.11.34-1.39m15.2-3.21,2.56-3c.56-.65.5-1.09.2-1.45s-.87-.48-1.58.34L65,9.8,62.9,7.1a1.13,1.13,0,0,0-1.67-.4c-.4.36-.47.79-.07,1.5l2.55,3.16-2.45,2.89c-.68.67-.62,1.3-.26,1.59s1,.18,1.51-.42l2.31-2.68L67,15.43a1.23,1.23,0,0,0,1.57.46c.41-.24.66-.91,0-1.62Z"/><path class="cls-1" d="M81.51,7.64a3.24,3.24,0,0,0-1.05-.71,3.33,3.33,0,0,0-1.31-.26A3.07,3.07,0,0,0,77.68,7a3.9,3.9,0,0,0-1.08.86A3.12,3.12,0,0,0,75.54,7a3.36,3.36,0,0,0-3.85.65,3.26,3.26,0,0,0-.69,1A3.34,3.34,0,0,0,70.76,10v5.38a.49.49,0,0,0,.16.37.53.53,0,0,0,.39.15.55.55,0,0,0,.38-.15.5.5,0,0,0,.17-.37V10A2.27,2.27,0,0,1,72,9.09a1.87,1.87,0,0,1,.45-.71A2.16,2.16,0,0,1,74,7.72a1.93,1.93,0,0,1,.85.18,1.79,1.79,0,0,1,.63.48,2.13,2.13,0,0,1,.39.69,2.48,2.48,0,0,1,.14.87v5.39a.49.49,0,0,0,.16.37.53.53,0,0,0,.39.15A.56.56,0,0,0,77,15.7a.49.49,0,0,0,.16-.37V10a2.71,2.71,0,0,1,.13-.86,2,2,0,0,1,.39-.71,1.7,1.7,0,0,1,.63-.48,1.9,1.9,0,0,1,.85-.18A2.18,2.18,0,0,1,80,7.9a2.29,2.29,0,0,1,.7.48,2.15,2.15,0,0,1,.45.71,2.48,2.48,0,0,1,.16.86v5.38a.51.51,0,0,0,.15.37.58.58,0,0,0,.78,0,.49.49,0,0,0,.16-.37V10a3.34,3.34,0,0,0-.24-1.27A3,3,0,0,0,81.51,7.64Zm8.71.14a.57.57,0,0,0,.39-.16.5.5,0,0,0,.16-.37.47.47,0,0,0-.16-.37.57.57,0,0,0-.39-.16h-5.8a.57.57,0,0,0-.39.16.47.47,0,0,0-.16.37v8.08a.46.46,0,0,0,.17.37.55.55,0,0,0,.38.15h5.8a.53.53,0,0,0,.39-.16.48.48,0,0,0,.16-.36.46.46,0,0,0-.16-.37.53.53,0,0,0-.39-.16H85V12h3.08a.51.51,0,0,0,.39-.17.46.46,0,0,0,.16-.36.51.51,0,0,0-.16-.38.53.53,0,0,0-.39-.15H85V7.78Zm7.65-.1a3.39,3.39,0,0,0-1.1-.7,3.57,3.57,0,0,0-1.35-.26H92.54a.58.58,0,0,0-.4.16.51.51,0,0,0-.16.37v8.08a.5.5,0,0,0,.17.37.56.56,0,0,0,.39.15h2.9a3.46,3.46,0,0,0,2.43-.95,3.42,3.42,0,0,0,.74-1,3,3,0,0,0,.27-1.27V10a3,3,0,0,0-.27-1.27A3.3,3.3,0,0,0,97.87,7.68Zm-.08,4.92a1.93,1.93,0,0,1-.19.86,2.16,2.16,0,0,1-.49.7,2.43,2.43,0,0,1-1.67.64H93.08v-7h2.34a2.48,2.48,0,0,1,1.69.64,2.16,2.16,0,0,1,.49.7,1.93,1.93,0,0,1,.19.86Zm3.46-5.88a.53.53,0,0,0-.39.16.48.48,0,0,0-.17.37v8.08a.5.5,0,0,0,.17.37.56.56,0,0,0,.39.15.52.52,0,0,0,.38-.15.49.49,0,0,0,.16-.37V7.25a.47.47,0,0,0-.16-.37A.57.57,0,0,0,101.25,6.72Zm10.2,8.41L107.8,7a.5.5,0,0,0-.29-.28.59.59,0,0,0-.21,0,.52.52,0,0,0-.51.32l-3.65,8.14a.93.93,0,0,0,0,.22.52.52,0,0,0,.15.35.48.48,0,0,0,.39.17.6.6,0,0,0,.29-.08.54.54,0,0,0,.21-.24l3.16-7,3.15,7a.54.54,0,0,0,1-.2A.6.6,0,0,0,111.45,15.13Z"/></g></g></svg>