<svg xmlns="http://www.w3.org/2000/svg" viewBox="0 0 61.3 66"><defs><style>.cls-1{fill:#bddb84;}.cls-2{fill:#fff;}</style></defs><g id="Layer_2" data-name="Layer 2"><g id="Layer_1-2" data-name="Layer 1"><rect class="cls-1" x="13.5" y="18.19" width="47.81" height="47.81" rx="4"/><path d="M45.39,24.47a2.2,2.2,0,0,0,0-3,29.77,29.77,0,0,0-2.18-2.69,2.34,2.34,0,0,1-.63-2.27c.21-1.07.35-2.14.54-3.21a2.34,2.34,0,0,0-1.54-2.86C40.37,10,39.13,9.57,38,9a2.13,2.13,0,0,1-1-1C36.4,6.85,36,5.6,35.52,4.4a2.36,2.36,0,0,0-2.86-1.55c-1.21.21-2.42.45-3.64.55a2.59,2.59,0,0,1-1.56-.46c-1-.7-1.91-1.54-2.88-2.29a2.28,2.28,0,0,0-3.16,0,15.11,15.11,0,0,0-1.85,1.52,3.5,3.5,0,0,1-3.89,1.09,16.48,16.48,0,0,0-2.56-.43A2.27,2.27,0,0,0,10.7,3.89a4.78,4.78,0,0,0-.65,1.6A5.28,5.28,0,0,1,5.54,10a5.4,5.4,0,0,0-1,.39,2.38,2.38,0,0,0-1.66,3c.19,1.1.34,2.21.54,3.32a2.1,2.1,0,0,1-.55,2c-.8.87-1.53,1.83-2.25,2.78a2.22,2.22,0,0,0,0,3.07,26.69,26.69,0,0,0,2.12,2.6,2.52,2.52,0,0,1,.63,2.48C3.13,30.82,3,32,2.76,33.23A2.37,2.37,0,0,0,4.34,35.5c1.21.47,2.45.88,3.63,1.42A2.41,2.41,0,0,1,9,38c.54,1.18.94,2.42,1.43,3.62a2.34,2.34,0,0,0,2.78,1.52c1.1-.19,2.21-.36,3.31-.56a2.26,2.26,0,0,1,2.18.59,29.72,29.72,0,0,0,2.52,2.06,2.37,2.37,0,0,0,3.42,0c.85-.67,1.73-1.32,2.52-2.06a2.26,2.26,0,0,1,2.17-.62c1.1.22,2.21.36,3.31.56a2.35,2.35,0,0,0,2.84-1.57c.47-1.14.82-2.32,1.37-3.42a2.94,2.94,0,0,1,1.28-1.26c1.13-.55,2.35-.92,3.52-1.41a2.3,2.3,0,0,0,1.44-2.72,32.34,32.34,0,0,1-.54-3.53,3.31,3.31,0,0,1,.52-1.85C43.79,26.34,44.65,25.45,45.39,24.47ZM9.46,35.91c-1.45-.53-2.88-1.15-4.33-1.7a1.11,1.11,0,0,1-.8-1.42c.19-1,.29-2.08.52-3.1A3.44,3.44,0,0,0,4,26.3c-.76-.81-1.4-1.74-2.13-2.59a1,1,0,0,1,0-1.43c.77-.91,1.48-1.88,2.26-2.77a1.39,1.39,0,0,1,.91-.4c1.84,0,3.69,0,5.53,0A2.28,2.28,0,0,1,13,21.54c0,2,0,4,0,6s0,4,0,6A2.54,2.54,0,0,1,9.46,35.91Zm32.31-9.35A3,3,0,0,0,41,29.27c.18,1.11.33,2.22.57,3.31a1.27,1.27,0,0,1-1,1.72c-1,.31-1.94.77-2.94,1.09a3.22,3.22,0,0,0-2.28,2.25c-.34,1.1-.82,2.15-1.21,3.24a1,1,0,0,1-1.34.76c-1.11-.19-2.21-.36-3.32-.56a3.23,3.23,0,0,0-3,.73,25.47,25.47,0,0,1-2.88,2.3,1.45,1.45,0,0,1-1.3,0,26.39,26.39,0,0,1-2.88-2.3A3.11,3.11,0,0,0,16.64,41c-1.1.19-2.21.36-3.31.58a1.19,1.19,0,0,1-1.6-.85c-.36-1.05-.77-2.08-1.1-3,1-.53,1.88-1,2.8-1.48a2.16,2.16,0,0,1,.92-.05c1,0,2.09.13,3.13.08,3.68-.21,7.37-.45,11.05-.71,2.66-.19,3.54-1.71,2.4-4.15a3.28,3.28,0,0,0,.56-4.06c1.73-2,1.83-3,.56-4.75A9.29,9.29,0,0,0,32.8,21a2.58,2.58,0,0,0-2.69-3.31c-2.6,0-5.21,0-7.82,0H21c.45-1.78.86-3.41,1.25-5.05A3.67,3.67,0,0,0,19.36,8a1.38,1.38,0,0,0-1.7.92c-1.23,2.85-2.55,5.66-3.83,8.49-.17.36-.35.7-.53,1.07-2.63-1.5-5.51-.39-8.24-.9-.25-1.51-.48-3-.74-4.49a1.07,1.07,0,0,1,.82-1.32c1-.36,2-.82,3-1.13a3.39,3.39,0,0,0,2.45-2.49c.3-1,.77-2,1.1-2.94a1.14,1.14,0,0,1,1.5-.85c1.1.21,2.21.36,3.31.57a3.15,3.15,0,0,0,2.91-.75,25.26,25.26,0,0,1,2.89-2.29,1.4,1.4,0,0,1,1.29,0,24.63,24.63,0,0,1,2.89,2.29,3.13,3.13,0,0,0,2.91.75c1.07-.2,2.15-.34,3.21-.56a1.22,1.22,0,0,1,1.64,1c.31,1,.78,1.87,1.06,2.84a3.37,3.37,0,0,0,2.45,2.48c1,.31,2,.77,3.05,1.13a1.11,1.11,0,0,1,.8,1.43c-.19,1-.27,2-.51,3A3.59,3.59,0,0,0,42,19.76c.75.78,1.36,1.69,2.07,2.51a1,1,0,0,1,0,1.43C43.31,24.64,42.6,25.65,41.77,26.56Zm-22.84-7.5c3.55.05,7.1,0,10.65,0,.92,0,1.7.13,1.84,1.21.1.84-.55,1.37-1.7,1.61-.41.09-1,.31-1.11.61-.25.68.25,1,.91.93,1-.06,1.82.24,1.87,1.32s-.78,1.31-1.68,1.5a4.32,4.32,0,0,0-1.17.7,9.17,9.17,0,0,1,1,.88c.34.41.84.88.84,1.33s-.5.92-.85,1.31c-.14.15-.53,0-.72.17a5.17,5.17,0,0,0-.77.78c.27.24.51.6.82.68.64.16,1.22.43,1.05,1.1a1.55,1.55,0,0,1-1.09.93c-4.48.31-9,.54-13.44.78a4.19,4.19,0,0,1-.85-.1c0-4.66.08-9.18-.06-13.69A5.67,5.67,0,0,1,15,18.48c1.24-2.73,2.47-5.46,3.72-8.19.41-.91.85-1.06,1.46-.29a2.88,2.88,0,0,1,.66,1.92,49,49,0,0,1-1.24,5.16c-.06.22-.51.32-.75.51s-.62.54-.93.82C18.24,18.63,18.58,19.06,18.93,19.06ZM27,7.56c-1.23.11-.84,1.29-1.13,2-.07.16.44.55.68.84l1.45-2C27.53,8,27.24,7.54,27,7.56Zm9.79,7.38a.71.71,0,0,0-.62-.29,9.85,9.85,0,0,0-1.77,1c-.16.11-.2.54-.12.77s.37.36.63.6c.69-.45,1.34-.82,1.92-1.28C37,15.62,36.9,15.16,36.78,14.94Zm1.31,4.71c.19-.06.29-.35.78-1-.32-.11-.65-.33-.94-.29a11.33,11.33,0,0,0-2.13.56c-.14,0-.25.53-.17.74s.42.5.6.47A8.48,8.48,0,0,0,38.09,19.65ZM30.67,9c-.68.05-1.73,1.77-1.48,2.29.08.17.35.43.43.39.39-.16.9-.32,1.05-.64a6.48,6.48,0,0,0,.45-1.82C31.13,9.2,30.77,9.09,30.67,9Zm3.14,2.45c-1.27,0-2.35.77-1.67,1.85-.39-.19.11.33.62,1,.68-.88,1.22-1.56,1.71-2.28A3.07,3.07,0,0,0,33.81,11.49Zm2.87,10.83c-.27.07-.62.45-.61.68s.37.52.64.66.5,0,.75,0h0c.22,0,.48.07.64,0A7.58,7.58,0,0,0,39,23c-.31-.23-.59-.58-.93-.67A2.84,2.84,0,0,0,36.68,22.32Z"/><path class="cls-2" d="M47.34,44.58l1.77,3.59a.75.75,0,0,0,.54.39l4,.57A.71.71,0,0,1,54,50.34l-2.86,2.8a.71.71,0,0,0-.21.63l.68,3.94a.71.71,0,0,1-1,.75L47,56.6a.72.72,0,0,0-.67,0l-3.54,1.86a.71.71,0,0,1-1-.75l.68-3.94a.71.71,0,0,0-.21-.63l-2.86-2.8a.71.71,0,0,1,.39-1.21l4-.57a.75.75,0,0,0,.54-.39l1.77-3.59A.71.71,0,0,1,47.34,44.58Z"/></g></g></svg>