<svg xmlns="http://www.w3.org/2000/svg" viewBox="0 0 66.29 66"><defs><style>.cls-1{fill:#bddb84;}.cls-2{fill:#fff;}</style></defs><g id="Layer_2" data-name="Layer 2"><g id="Layer_1-2" data-name="Layer 1"><rect class="cls-1" x="13.95" y="13.66" width="52.34" height="52.34" rx="4"/><path class="cls-2" d="M57.47,51.45a3.61,3.61,0,0,0-1-1.16,5.39,5.39,0,0,0-1.34-.76,9.73,9.73,0,0,0-1.42-.46l-.51-.14V44.41a3.3,3.3,0,0,1,1.42.52,2,2,0,0,1,.93,1.55h2.1A3.53,3.53,0,0,0,57,44.42,4.31,4.31,0,0,0,55.21,43a5.65,5.65,0,0,0-2-.49V40.89H51.9v1.64A6,6,0,0,0,50,43a4.5,4.5,0,0,0-1.83,1.45,3.59,3.59,0,0,0-.67,2.17,3.08,3.08,0,0,0,1,2.42,6.49,6.49,0,0,0,2.74,1.39l.6.16v4.79a4.13,4.13,0,0,1-.89-.2,2.66,2.66,0,0,1-1.15-.77,2.17,2.17,0,0,1-.51-1.3H47.13a4.19,4.19,0,0,0,.74,2.25,4.24,4.24,0,0,0,1.85,1.46,6.53,6.53,0,0,0,2.13.49v1.59h1.32V57.32a6.41,6.41,0,0,0,2.23-.52,4.3,4.3,0,0,0,1.83-1.5,3.87,3.87,0,0,0,.63-2.18A3.38,3.38,0,0,0,57.47,51.45Zm-6-3a4.77,4.77,0,0,1-.85-.41,2,2,0,0,1-.64-.63,1.59,1.59,0,0,1-.25-.88,1.79,1.79,0,0,1,.36-1.1,2.44,2.44,0,0,1,1-.76,3.65,3.65,0,0,1,.85-.23v4.16Zm3.87,5.9a2.8,2.8,0,0,1-1.14.82,4.18,4.18,0,0,1-1,.24V51a8,8,0,0,1,1.17.41,2.66,2.66,0,0,1,1,.67,1.52,1.52,0,0,1,.36,1.05A2,2,0,0,1,55.29,54.33Z"/><path d="M5.46,21.64c.55,0,1.07-.08,1.34.13s.74.95.62,1.17c-.86,1.54-1.83,3-2.8,4.49-.5.75-1.14.73-1.63,0C2,26,1.11,24.56.23,23.09-.24,22.31,0,21.8,1,21.72c.41,0,.81-.06,1.11-.08A56.1,56.1,0,0,1,3.88,15C7.46,6.16,14.08,1,23.52.12s16.66,3,21.9,10.74c.17.26.48.56.45.79-.11.69-.17,1.59-.61,2s-1.29-.08-1.86-.36c-.36-.18-.53-.75-.79-1.13A20.33,20.33,0,0,0,5.46,20.86,6.59,6.59,0,0,0,5.46,21.64Z"/><path d="M45.79,25.26c-.48,0-.83,0-1.19-.06-.85-.08-1.14-.56-.72-1.27.9-1.52,1.84-3,2.84-4.47.59-.84,1.23-.56,1.72.2.81,1.26,1.64,2.52,2.43,3.8s.59,1.65-1,1.75l-.66.05a57.39,57.39,0,0,1-1.75,6.36C43.86,40.5,37.2,45.68,27.7,46.54c-9.24.84-16.54-3-21.76-10.69-.23-.34-.59-.73-.57-1.08,0-.6.19-1.44.6-1.7a2.34,2.34,0,0,1,1.79.16c.36.16.56.72.81,1.11a20.33,20.33,0,0,0,37.26-8.47A3,3,0,0,0,45.79,25.26Z"/></g></g></svg>