<svg xmlns="http://www.w3.org/2000/svg" viewBox="0 0 170 29.15"><defs><style>.cls-1{fill:#fff;}</style></defs><g id="Layer_2" data-name="Layer 2"><g id="Elements"><path class="cls-1" d="M4.72,22.86a8.34,8.34,0,0,0-3.89,2c-.58.51-1,1.15-.76,1.63a15.21,15.21,0,0,0,.92,2c.39.64.54.84.84.63a16.15,16.15,0,0,0,3.36-5.78C5.23,22.91,5.06,22.82,4.72,22.86ZM27.57,0a40.5,40.5,0,0,0-6.66.89c-5.86,1-13,3.12-16.45,7.8A10,10,0,0,0,5.63,22.08c3,3.29,9.4,3.47,14-.43C23.05,18.8,24.88,13.42,26,8.21c.43-1.92.9-3.91,1.21-5.65C27.4,1.63,27.83.09,27.57,0Z"/><path class="cls-1" d="M52.39,10a7.25,7.25,0,0,0-6.54,3.47,7.47,7.47,0,0,0-.92,3.75,7.94,7.94,0,0,0,1.73,4.95A6.91,6.91,0,0,0,52,24.39c2.18,0,4.52-.59,5.66-2.42a1.21,1.21,0,0,0-1.88-1.51C55.08,21,54.38,22,52.2,22a4.56,4.56,0,0,1-4.36-3.87h9.51c.67,0,1.47-.5,1.34-1.82S57.1,10,52.39,10m-4.51,5.95a4.17,4.17,0,0,1,4.17-3.71,3.79,3.79,0,0,1,3.76,3.71Zm38-5.95a7.27,7.27,0,0,0-6.54,3.47,7.47,7.47,0,0,0-.92,3.75,7.9,7.9,0,0,0,1.74,4.95,6.87,6.87,0,0,0,5.36,2.23c2.18,0,4.53-.59,5.66-2.42a1.21,1.21,0,0,0-1.88-1.51C88.55,21,87.85,22,85.67,22a4.56,4.56,0,0,1-4.36-3.87h9.52c.67,0,1.46-.5,1.34-1.82S90.57,10,85.86,10m-4.51,5.95a4.17,4.17,0,0,1,4.17-3.71,3.78,3.78,0,0,1,3.76,3.71ZM69.1,10.22A5.8,5.8,0,0,0,67.59,10a4.92,4.92,0,0,0-4.28,2.24v-.42c0-1.56-1-1.82-1.45-1.82a1.27,1.27,0,0,0-1.4,1.37V22.58c0,1.48.67,1.81,1.29,1.81a1.57,1.57,0,0,0,1.56-1.78V16.47a4.2,4.2,0,0,1,2-3.6,4.06,4.06,0,0,1,3.24-.06,1.32,1.32,0,1,0,.53-2.59m-25.84-.09a1.64,1.64,0,0,0-2.24,1l-3.74,9.61c0,.11-.1.15-.16,0l-3.74-9.61a1.64,1.64,0,0,0-2.24-1c-.67.39-.89,1-.53,2.1L35,22.69a2.26,2.26,0,0,0,2.23,1.7c1.15,0,1.69-.41,2.23-1.7l4.36-10.46c.36-1.12.14-1.71-.53-2.1M77.68,22c-.59-.41-1-.08-1.85,0-1.19.08-1.54-1.21-1.54-2v-7.7H76.4c1.91,0,1.93-2.24.23-2.24H74.29V7.82c0-1.25-.62-1.73-1.35-1.73s-1.49.48-1.49,1.73V19.34c0,2.29.5,3.35,1.43,4.19a4.36,4.36,0,0,0,4.27.54A1.21,1.21,0,0,0,77.68,22m23.17-4.89,3.91-4.55c.86-1,.76-1.66.3-2.21s-1.33-.73-2.41.52l-3.48,4.11-3.26-4.12a1.73,1.73,0,0,0-2.54-.61c-.62.55-.73,1.2-.11,2.29l3.88,4.83-3.73,4.4c-1,1-1,2-.39,2.43s1.51.27,2.29-.64l3.52-4.1,3.3,4.1a1.88,1.88,0,0,0,2.4.71c.63-.37,1-1.39,0-2.48Z"/><path class="cls-1" d="M124.29,11.64a5.09,5.09,0,0,0-3.6-1.47,4.67,4.67,0,0,0-2.25.51A6,6,0,0,0,116.8,12a5,5,0,0,0-1.61-1.32,5.4,5.4,0,0,0-4.29-.09,4.81,4.81,0,0,0-2.63,2.66,4.83,4.83,0,0,0-.38,1.94v8.2a.74.74,0,0,0,.25.57.81.81,0,0,0,.59.23.83.83,0,0,0,.58-.23.71.71,0,0,0,.26-.57v-8.2a3.68,3.68,0,0,1,.24-1.32,3,3,0,0,1,.69-1.07,3.23,3.23,0,0,1,1.06-.73,3.28,3.28,0,0,1,1.34-.28,3,3,0,0,1,1.3.28,2.81,2.81,0,0,1,1,.73,3.3,3.3,0,0,1,.59,1.06,4,4,0,0,1,.22,1.31v8.22a.73.73,0,0,0,.24.57.82.82,0,0,0,.59.23.86.86,0,0,0,.6-.23.76.76,0,0,0,.24-.57v-8.2a4.44,4.44,0,0,1,.2-1.32,2.93,2.93,0,0,1,.59-1.07,2.72,2.72,0,0,1,1-.73,3,3,0,0,1,1.3-.28,3.37,3.37,0,0,1,1.36.28,3.34,3.34,0,0,1,1.06.73,3.29,3.29,0,0,1,.69,1.07,3.68,3.68,0,0,1,.24,1.32v8.2a.76.76,0,0,0,.24.57.87.87,0,0,0,1.18,0,.74.74,0,0,0,.25-.57v-8.2a4.94,4.94,0,0,0-1.42-3.53Zm13.28.22a.82.82,0,0,0,.6-.25.77.77,0,0,0,0-1.12.85.85,0,0,0-.6-.24h-8.84a.81.81,0,0,0-.6.24.75.75,0,0,0-.24.57V23.37a.74.74,0,0,0,.25.57.88.88,0,0,0,.59.23h8.84a.85.85,0,0,0,.6-.24.77.77,0,0,0,.24-.56.75.75,0,0,0-.24-.57.88.88,0,0,0-.6-.23h-8V18.23h4.69a.82.82,0,0,0,.6-.25.74.74,0,0,0,.24-.56.78.78,0,0,0-.24-.57.85.85,0,0,0-.6-.23h-4.69V11.86Zm11.67-.15a5.11,5.11,0,0,0-1.68-1.06,5.48,5.48,0,0,0-2.06-.4h-4.4a.81.81,0,0,0-.6.24.75.75,0,0,0-.24.57V23.37a.74.74,0,0,0,.25.57.83.83,0,0,0,.59.23h4.43a5.36,5.36,0,0,0,2-.38,5.43,5.43,0,0,0,1.67-1.07,5.3,5.3,0,0,0,1.12-1.57,4.5,4.5,0,0,0,.42-1.93v-4a4.5,4.5,0,0,0-.42-1.93A5.17,5.17,0,0,0,149.24,11.71Zm-.13,7.51a3,3,0,0,1-.29,1.3,3.14,3.14,0,0,1-.75,1.07,3.67,3.67,0,0,1-2.54,1h-3.59V11.86h3.56a3.9,3.9,0,0,1,1.42.26,3.67,3.67,0,0,1,1.15.72,3.3,3.3,0,0,1,.75,1.06,3.09,3.09,0,0,1,.29,1.31Zm5.27-9a.78.78,0,0,0-.59.24.72.72,0,0,0-.25.57V23.37a.71.71,0,0,0,.26.57.86.86,0,0,0,1.17,0,.77.77,0,0,0,.25-.57V11.06a.73.73,0,0,0-.26-.57A.8.8,0,0,0,154.38,10.25Zm15.55,12.82-5.55-12.41a.76.76,0,0,0-.44-.42.85.85,0,0,0-.33-.07.79.79,0,0,0-.78.49l-5.55,12.41a.86.86,0,0,0-.07.34.85.85,0,0,0,.22.53.75.75,0,0,0,.6.26.9.9,0,0,0,.45-.13.86.86,0,0,0,.32-.36L163.61,13l4.81,10.74a.78.78,0,0,0,.77.49.74.74,0,0,0,.59-.26.79.79,0,0,0,.22-.53A.86.86,0,0,0,169.93,23.07Z"/></g></g></svg>