<svg xmlns="http://www.w3.org/2000/svg" viewBox="0 0 121 111"><defs><style>.cls-1{fill:none;stroke:#91c332;stroke-miterlimit:10;}</style></defs><g id="Layer_2" data-name="Layer 2"><g id="Elements"><path class="cls-1" d="M14.91,84.57c.37-.55.69-1.14,1.11-1.65,2.34-2.86,4.74-5.65,7-8.55,1.43-1.83,2.7-3.8,4-5.7L27,68.34a20.9,20.9,0,0,0-2.09.25L6.08,72.66c-.09,0-.19.1-.27.08-.34-.06-.67-.15-1-.23a3.13,3.13,0,0,1,.71-.66c5.58-2.69,11.21-5.28,16.74-8.06a80.36,80.36,0,0,0,14-8.56l.45-.37C40.06,52,40.19,51.34,39.36,47S38,38.43,37.26,34.16a9.8,9.8,0,0,0-3.63-6.53Q17.58,15.26,1.61,2.78C1.06,2.35.18,1.94.62,1S1.87.61,2.51.74A237.17,237.17,0,0,1,31,7.79a185,185,0,0,1,24.28,9.43,24,24,0,0,1,4.71,3.16,6.14,6.14,0,0,1,2.18,5.67,15.39,15.39,0,0,0,0,3.11,2.89,2.89,0,0,0,2.24,2.63,7.56,7.56,0,0,0,7.27-1.68c3.62-3,6.81-3.29,10.83-.86a6.47,6.47,0,0,0,3.28,1.2A4.48,4.48,0,0,1,89,31.76c-.08.1-.11.17-.16.19-2.53,1.3-3.92,3.58-5.33,5.95s-3.1,4.46-4.68,6.68c-.18.26-.38.5-.66.86,2.17.59,4.24,1.13,6.29,1.72s3.87,1.16,5.8,1.74a8.68,8.68,0,0,1,4.83,3.79,197,197,0,0,1,22,45.45c1.23,3.67,2.27,7.4,3.36,11.11.1.35.08,1-.11,1.12a1.47,1.47,0,0,1-1.23,0,8.76,8.76,0,0,1-1.87-1.34c-4.72-4.41-9.48-8.78-14.1-13.28-6.81-6.63-13.58-13.3-20.24-20.08a22.6,22.6,0,0,0-12-6.59,42.61,42.61,0,0,1-11.2-3.71,12.79,12.79,0,0,0-10.87-.61c-3.48,1.3-7,2.55-10.47,3.83-2.67,1-4.81,2.78-7,4.52-4.95,3.88-10,7.59-15,11.35a5.42,5.42,0,0,1-1.16.47Z"/></g></g></svg>