<svg xmlns="http://www.w3.org/2000/svg" viewBox="0 0 59.85 66"><defs><style>.cls-1{fill:#bddb84;}.cls-2{fill:#fff;}</style></defs><g id="Layer_2" data-name="Layer 2"><g id="Layer_1-2" data-name="Layer 1"><rect class="cls-1" x="9.99" y="15.2" width="49.86" height="49.86" rx="4"/><path d="M0,11.68C10.14,11.38,19.39,9.57,25.27,0c5.78,9.47,15,11.4,25.27,11.67v1.88c0,8.34-.1,16.69,0,25a19.55,19.55,0,0,1-3.7,11.72C41.67,57.81,34.24,62.37,26,65.86a2.21,2.21,0,0,1-1.56,0C16.34,62.36,9,57.84,3.77,50.4A20,20,0,0,1,0,38.37c.14-8.29,0-16.59,0-24.88Zm47.69,2.69C39,13.84,31.17,11.7,25.2,5A21.75,21.75,0,0,1,15,11.93c-3.9,1.19-7.93,1.94-12.19,3v1.34c0,7.25.14,14.5-.06,21.74A18.58,18.58,0,0,0,7.2,50.37a37,37,0,0,0,11.63,9.56c7.84,4.2,5.1,4.19,12.81.06A35.46,35.46,0,0,0,44.57,48.74a17,17,0,0,0,3.2-10.34c-.16-5.15,0-10.32,0-15.48Z"/><path class="cls-2" d="M16.51,31.81H34.13v4.26c0,2.47-.06,4.94,0,7.41a3.29,3.29,0,0,1-1.57,3c-3.76,2.63-10.88,2.66-14.53-.06a3.43,3.43,0,0,1-1.47-2C16.44,40.27,16.51,36.11,16.51,31.81Zm7.43,11.3h2.62c-.13-1.71-.8-3.29.39-4.82.22-.28-.36-1.59-.9-1.94a2,2,0,0,0-2,.32c-.4.5-.58,1.82-.24,2.14.89.86.52,1.69.4,2.57C24.17,41.92,24.06,42.45,23.94,43.11Z"/><path class="cls-2" d="M31.18,29.61H28.8c0-1,0-2,0-3a3.27,3.27,0,0,0-3.32-3.48A3.29,3.29,0,0,0,22,26.56c0,1,0,1.94,0,3H19.14A42.18,42.18,0,0,1,20,24.07c.56-2,3.17-3.29,5.6-3.15,2.86.16,5.26,1.78,5.56,4A34.89,34.89,0,0,1,31.18,29.61Z"/></g></g></svg>