<svg xmlns="http://www.w3.org/2000/svg" viewBox="0 0 71.93 66"><defs><style>.cls-1{fill:#bddb84;}.cls-2{fill:#fff;}</style></defs><g id="Layer_2" data-name="Layer 2"><g id="Layer_1-2" data-name="Layer 1"><rect class="cls-1" x="25.79" width="39.85" height="46.59" rx="4"/><path d="M48,43.24c-.13-.11-.28-.21-.43-.32a8.29,8.29,0,0,1-.84-.68l-7-7c-4.53-4.53-9.2-9.2-13.83-13.77-.55-.55-.59-.73-.29-1.45A13.07,13.07,0,0,0,21.89,5,13.29,13.29,0,1,0,7.21,27a13.52,13.52,0,0,0,11.35.42,1.92,1.92,0,0,1,.52-.12c2,1.92,4,3.87,6.06,5.93l1.08,1.07-3.59,3.35a.88.88,0,0,0-.28.63.92.92,0,0,0,.26.65l5.24,5.21a.88.88,0,0,0,1.28,0l3.19-3.48,3.78,3.82-3.5,3.3a.94.94,0,0,0-.28.63.9.9,0,0,0,.26.64l4.84,5a.91.91,0,0,0,.63.27h0a.9.9,0,0,0,.63-.26l9.38-9.4A.88.88,0,0,0,48,43.24Zm-9.92,8.82-3.58-3.67L38,45.08a.88.88,0,0,0,.28-.64.89.89,0,0,0-.26-.63l-5.07-5.13a.9.9,0,0,0-.65-.26.89.89,0,0,0-.63.29l-3.2,3.48-3.93-3.91,3.59-3.35a.92.92,0,0,0,.28-.64.87.87,0,0,0-.27-.64l-1.73-1.72c-2.13-2.11-4.14-4.11-6.22-6.08-.76-.73-2.23-.14-2.29-.11A11.75,11.75,0,0,1,8,25.38a11.51,11.51,0,1,1,12.72-19,11.31,11.31,0,0,1,3.23,13,2.71,2.71,0,0,0,.68,3.39C29.27,27.33,34,32,38.47,36.52l7,7a7.56,7.56,0,0,0,.63.54Z"/><path d="M13.27,20.87h0a5.73,5.73,0,0,1-4-9.79,5.64,5.64,0,0,1,4-1.67h0A5.74,5.74,0,0,1,19,15.18a5.7,5.7,0,0,1-5.74,5.69Zm0-11v.43A4.86,4.86,0,0,0,13.23,20h0a4.86,4.86,0,0,0,0-9.72Z"/><path d="M19.46,15.19Z"/><path d="M67.24,66H14.91a4.69,4.69,0,0,1-4.69-4.69V37.15a1.07,1.07,0,0,1,2.13,0V61.31a2.56,2.56,0,0,0,2.56,2.56H67.24a2.56,2.56,0,0,0,2.56-2.56v-45a2.57,2.57,0,0,0-2.56-2.57H34a1.07,1.07,0,0,1,0-2.13h33.2a4.71,4.71,0,0,1,4.69,4.7v45A4.7,4.7,0,0,1,67.24,66Z"/><path class="cls-2" d="M56.28,24.16H42.21a1.09,1.09,0,0,1,0-2.13H56.28a1.09,1.09,0,0,1,0,2.13Z"/><path class="cls-2" d="M56.28,32.19H45.73a1,1,0,0,1-.87-1.06,1,1,0,0,1,.87-1.07H56.28a1,1,0,0,1,.86,1.07A1,1,0,0,1,56.28,32.19Z"/></g></g></svg>