<svg xmlns="http://www.w3.org/2000/svg" viewBox="0 0 726 765.24"><defs><style>.cls-1{fill:none;stroke:#91c332;stroke-miterlimit:10;}</style></defs><g id="Layer_2" data-name="Layer 2"><g id="Elements"><path class="cls-1" d="M124.34,600C84.28,607.33,46.93,629,22.15,651.28,7.13,664.76-4,681.55,2.28,694.07c0,0,13.61,35.5,24.06,52.19s14.34,21.91,22.13,16.33c48-44.55,87-141.45,88.14-151.47S133.27,598.87,124.34,600ZM723.34.93c-25.94-3.11-106,11.33-174.51,23.42-153.66,27.1-340.31,81.73-431.41,204.52C11.53,371.57,82.3,522.58,148.16,579.56c79.4,86.13,246.35,90.84,367.77-11.3C605,493.36,652.79,352.38,683.06,215.74c11.14-50.25,23.54-102.41,31.6-148.16C719,43.22,730.18,3,723.34.93Z"/></g></g></svg>