<svg xmlns="http://www.w3.org/2000/svg" viewBox="0 0 540 360"><defs><style>.cls-1{fill:#f7f7ff;}.cls-2{font-size:82.99px;}.cls-2,.cls-6{fill:#285798;}.cls-15,.cls-2,.cls-8{font-family:Inter-Bold, Inter;font-weight:700;}.cls-3{letter-spacing:-0.06em;}.cls-4{letter-spacing:0em;}.cls-5{letter-spacing:-0.03em;}.cls-7{fill:#fff;}.cls-8{font-size:28.29px;}.cls-9{letter-spacing:-0.01em;}.cls-10{letter-spacing:-0.01em;}.cls-11{font-size:24.54px;fill:#ababc6;letter-spacing:1.26em;}.cls-12{letter-spacing:1.31em;}.cls-13{letter-spacing:1.17em;}.cls-14{fill:none;stroke:#e8e8e8;stroke-miterlimit:10;}.cls-15{font-size:31.3px;fill:#c2c2d8;}.cls-16{letter-spacing:0em;}</style></defs><g id="Layer_2" data-name="Layer 2"><g id="Elements"><rect class="cls-1" width="540" height="360" rx="5"/><text class="cls-2" transform="translate(214.8 237.42)"><tspan class="cls-3">W</tspan><tspan class="cls-4" x="81.08" y="0">o</tspan><tspan class="cls-5" x="132" y="0">r</tspan><tspan x="163.8" y="0">d</tspan></text><path class="cls-6" d="M155,165.59h6v8.07c10.8.06,21.59-.11,32.38.06a3.48,3.48,0,0,1,3.89,3.86c.17,19.87,0,39.75.1,59.62-.1,2,.2,4.3-1,6.1-1.47,1-3.38.92-5.09,1-10.1-.05-20.2,0-30.3,0v8.07h-6.3c-15.36-2.8-30.76-5.38-46.15-8.07q0-35.29,0-70.59c15.47-2.7,31-5.33,46.42-8.09Z"/><path class="cls-7" d="M161.05,176.69h33.3v64.56h-33.3v-8.07h26.24v-4H161.05v-5h26.24v-4H161.05v-5h26.24v-4H161.05v-5h26.24v-4H161.05v-5h26.24v-4H161.05v-5.05h26.24v-4H161.05Zm-31.6,17.82c1.92-.11,3.83-.19,5.75-.29q2,10.22,4.17,20.38c1.14-7,2.4-14,3.62-21,2-.07,4-.18,6-.3-2.28,9.78-4.28,19.63-6.78,29.34-1.68.88-4.2,0-6.2.11-1.34-6.68-2.91-13.32-4.11-20-1.18,6.52-2.71,13-4.06,19.45q-2.91-.15-5.84-.35c-1.67-8.88-3.64-17.69-5.2-26.59,1.72-.08,3.46-.15,5.18-.21,1,6.42,2.22,12.82,3.13,19.25,1.43-6.59,2.88-13.19,4.29-19.79Z"/><text class="cls-8" transform="translate(328.64 74.78)">H<tspan class="cls-9" x="21.11" y="0">o</tspan><tspan x="38.09" y="0">w </tspan><tspan class="cls-10" x="68.7" y="0">t</tspan><tspan x="79.53" y="0">o Edit</tspan></text><text class="cls-11" transform="translate(98.55 296.75)">TEMP<tspan class="cls-12" x="191.54" y="0">L</tspan><tspan class="cls-13" x="237.38" y="0">A</tspan><tspan x="282.81" y="0">TE</tspan></text><polyline class="cls-14" points="540 112.24 106.35 112.24 106.35 146.72"/><text class="cls-15" transform="translate(342.72 168.22)">.do<tspan class="cls-16" x="48.4" y="0">c</tspan><tspan x="66.71" y="0">x</tspan></text></g></g></svg>