<?xml version="1.0" encoding="utf-8"?>
<!-- Generator: Adobe Illustrator 26.0.0, SVG Export Plug-In . SVG Version: 6.00 Build 0)  -->
<svg version="1.1" id="Layer_1" xmlns="http://www.w3.org/2000/svg" xmlns:xlink="http://www.w3.org/1999/xlink" x="0px" y="0px"
	 viewBox="0 0 54.4 57.4" style="enable-background:new 0 0 54.4 57.4;" xml:space="preserve">
<style type="text/css">
	.st0{fill:#91C332;}
</style>
<path class="st0" d="M9.3,45c-3,0.6-5.8,2.2-7.7,3.9c-1.1,1-2,2.3-1.5,3.2c0,0,1,2.7,1.8,3.9c0.8,1.3,1.1,1.6,1.7,1.2
	c3.6-3.3,6.5-10.6,6.6-11.4C10.3,45.1,10,44.9,9.3,45z M54.3,0c-1.9-0.2-8,0.9-13.1,1.8c-11.5,2-25.6,6.1-32.4,15.4
	c-8,10.7-2.6,22.1,2.3,26.3c6,6.5,18.5,6.8,27.6-0.8C45.4,37,49,26.4,51.3,16.2C52.1,12.4,53,8.5,53.6,5C54,3.2,54.8,0.2,54.3,0z"/>
</svg>
