<svg xmlns="http://www.w3.org/2000/svg" viewBox="0 0 540 360"><defs><style>.cls-1{fill:#ffd35f;}.cls-2{fill:#f6b500;}.cls-3{fill:#fff8e5;}.cls-4{fill:#ffe25f;}.cls-5{fill:#d79f00;}.cls-6{font-size:49.66px;fill:#fff;}.cls-6,.cls-7{font-family:Inter-Bold, Inter;font-weight:700;}.cls-7{font-size:28.3px;}.cls-8{letter-spacing:-0.01em;}.cls-9{letter-spacing:0em;}.cls-10{letter-spacing:-0.01em;}</style></defs><g id="Layer_2" data-name="Layer 2"><g id="Elements"><rect class="cls-1" width="540" height="360" rx="5"/><path class="cls-2" d="M133.2,167H79.57a8.92,8.92,0,0,0-8.92,8.92v91.55a8.92,8.92,0,0,0,8.92,8.93h72.15a8.93,8.93,0,0,0,8.93-8.93V193.68Z"/><path class="cls-3" d="M142.27,210.61h-12V198.92a3.69,3.69,0,0,0-3.69-3.69H91.16a3.69,3.69,0,0,0-3.69,3.69V232.6a3.69,3.69,0,0,0,3.69,3.69h12V248a3.69,3.69,0,0,0,3.69,3.69h35.44A3.69,3.69,0,0,0,146,248V214.3A3.69,3.69,0,0,0,142.27,210.61Zm-51.12,17V202.29h35.47v25.36ZM142.28,243H106.82v-6.74H126.6a3.69,3.69,0,0,0,3.69-3.69V217.68h12Z"/><polygon class="cls-4" points="133.2 166.97 133.2 193.68 160.65 193.68 133.2 166.97"/><polygon class="cls-5" points="133.2 193.68 160.65 221.38 160.65 193.68 133.2 193.68"/><text class="cls-6" transform="translate(408.1 276.37) rotate(-90)">Google<tspan x="0" y="47.59">Slide</tspan></text><text class="cls-7" transform="translate(70.65 88.24)">H<tspan class="cls-8" x="21.12" y="0">o</tspan><tspan class="cls-9" x="38.1" y="0">w </tspan><tspan class="cls-10" x="68.73" y="0">t</tspan><tspan x="79.56" y="0">o Edit</tspan></text></g></g></svg>