<svg xmlns="http://www.w3.org/2000/svg" xmlns:xlink="http://www.w3.org/1999/xlink" viewBox="0 0 540 360"><defs><style>.cls-1{fill:#f04196;}.cls-2{font-size:25.04px;}.cls-2,.cls-5,.cls-9{fill:#fff;}.cls-10,.cls-2,.cls-5{font-family:Inter-Bold, Inter;font-weight:700;}.cls-3{letter-spacing:-0.01em;}.cls-4{letter-spacing:-0.01em;}.cls-5{font-size:42.06px;}.cls-6{letter-spacing:-0.08em;}.cls-7{letter-spacing:-0.01em;}.cls-8{fill:url(#radial-gradient);}.cls-10{font-size:25.17px;fill:#870049;letter-spacing:0.02em;}</style><radialGradient id="radial-gradient" cx="231.72" cy="-935.28" r="0.02" gradientTransform="matrix(3437.51, 0, 0, -3326.93, -796407.52, -3111451.85)" gradientUnits="userSpaceOnUse"><stop offset="0" stop-color="#4b2b36" stop-opacity="0.98"/><stop offset="1" stop-color="#250f18"/></radialGradient></defs><g id="Layer_2" data-name="Layer 2"><g id="Elements"><rect class="cls-1" width="540" height="360" rx="5"/><text class="cls-2" transform="translate(48.46 316.9)">H<tspan class="cls-3" x="18.68" y="0">o</tspan><tspan x="33.71" y="0">w </tspan><tspan class="cls-4" x="60.8" y="0">t</tspan><tspan x="70.38" y="0">o Edit</tspan></text><text class="cls-5" transform="translate(216.68 165.1)">InDesign<tspan class="cls-6" x="0" y="45.46">T</tspan><tspan x="24.76" y="45.46">empla</tspan><tspan class="cls-7" x="150.69" y="45.46">t</tspan><tspan x="166.79" y="45.46">e</tspan></text><path class="cls-8" d="M103.12,134.18h80.21v78H103.12Z"/><path class="cls-9" d="M103.12,134.18h80.21v78H103.12Zm-3.64,81.63H187V130.53H99.48ZM154.82,166a5.12,5.12,0,0,0-2.15-.37c-4.7,0-8,3.61-8,9.62,0,6.85,3.36,9.62,7.55,9.62a6.53,6.53,0,0,0,2.59-.43ZM152.89,160a17.51,17.51,0,0,1,1.93.07v-9.7a.34.34,0,0,1,.36-.36h5.91c.29,0,.36.11.36.29V184.4a26.39,26.39,0,0,0,.19,3.68c0,.25-.08.29-.33.44a22.36,22.36,0,0,1-9.55,2.15c-8.06,0-13.82-5-13.82-15.17,0-8.71,5.72-15.48,14.95-15.48Zm-21.4,29.63c0,.36-.08.47-.48.47H125.4c-.37,0-.48-.18-.48-.47V150.5c0-.36.19-.47.48-.47h5.65c.29,0,.44.11.44.44Z"/><text class="cls-10" transform="translate(347.5 61.25)">.indd / .idml</text></g></g></svg>