<svg xmlns="http://www.w3.org/2000/svg" viewBox="0 0 540 360"><defs><style>.cls-1{fill:#f7f7f7;}.cls-2{font-size:28.3px;}.cls-2,.cls-6{fill:#dc5643;}.cls-10,.cls-2,.cls-6{font-family:Inter-Bold, Inter;font-weight:700;}.cls-3{letter-spacing:-0.01em;}.cls-4{letter-spacing:0em;}.cls-5{letter-spacing:-0.01em;}.cls-6{font-size:11.79px;letter-spacing:0.5em;}.cls-7{letter-spacing:0.47em;}.cls-8{letter-spacing:0.5em;}.cls-9{letter-spacing:0.46em;}.cls-10{font-size:79.17px;fill:#e3e3e3;}.cls-11{letter-spacing:-0.01em;}.cls-12{letter-spacing:-0.01em;}.cls-13{fill:none;stroke:#dc5643;stroke-miterlimit:10;stroke-width:2px;}.cls-14{fill:#d04827;}.cls-15{fill:#fff;}</style></defs><g id="Layer_2" data-name="Layer 2"><g id="Elements"><rect class="cls-1" width="540" height="360" rx="5"/><text class="cls-2" transform="translate(186.59 113.98)">H<tspan class="cls-3" x="21.12" y="0">o</tspan><tspan class="cls-4" x="38.1" y="0">w </tspan><tspan class="cls-5" x="68.73" y="0">t</tspan><tspan x="79.56" y="0">o Edit</tspan></text><text class="cls-6" transform="translate(128.97 286.16)">MICROSOFT P<tspan class="cls-7" x="146.89" y="0">O</tspan><tspan class="cls-8" x="161.68" y="0">WERPOINT</tspan><tspan x="54.04" y="18.87">2016 or AB</tspan><tspan class="cls-9" x="176.24" y="18.87">O</tspan><tspan x="190.88" y="18.87">VE</tspan></text><text class="cls-10" transform="translate(43.04 206.09)"><tspan class="cls-11">P</tspan><tspan class="cls-12" x="50.55" y="0">ow</tspan><tspan x="164.29" y="0">er</tspan><tspan class="cls-11" x="243.96" y="0">P</tspan><tspan x="294.51" y="0">oint</tspan></text><polyline class="cls-13" points="214.25 250.5 110.27 250.5 110.27 51.2 420.43 51.2 420.43 250.5 314.88 250.5"/><path class="cls-14" d="M266.94,197.71h3.94V204c7.43,0,14.86-.08,22.28,0a2.41,2.41,0,0,1,2.69,2.69c.12,13,0,26,.07,38.94-.07,1.4.14,3-.67,4.2-1,.74-2.33.64-3.52.7-7,0-13.89,0-20.85,0v6.94h-4.32c-10.58-1.93-21.19-3.69-31.78-5.55q0-24.32,0-48.62C245.49,201.43,256.21,199.54,266.94,197.71Z"/><path class="cls-15" d="M270.88,206.05h22.93v42.37H270.88v-5.55h16.67v-2.78H270.88v-3.48h16.67v-2.77H270.89c0-1.37,0-2.73,0-4.09a9.74,9.74,0,0,0,8.34-.82,9.5,9.5,0,0,0,4.28-7.58c-3.05,0-6.1,0-9.14,0,0-3,0-6-.07-9.06l-3.41.7v-6.92Z"/><path class="cls-14" d="M275.75,210.82a9.77,9.77,0,0,1,9.14,9.1c-3.05,0-6.1,0-9.14,0,0-3,0-6.08,0-9.12Z"/><path class="cls-15" d="M245.92,216.07c3.77.18,8.34-1.5,11.47,1.33,3,3.63,2.2,10.32-2.24,12.49a10.16,10.16,0,0,1-5.1.64c0,2.72,0,5.43,0,8.15l-4.13-.35c-.06-7.42-.08-14.84,0-22.26Z"/><path class="cls-14" d="M250,219.82c1.37-.06,3.07-.31,4,1a5,5,0,0,1,.09,4.55c-.79,1.44-2.58,1.3-4,1.46-.14-2.32-.13-4.65-.11-7Z"/></g></g></svg>