<svg xmlns="http://www.w3.org/2000/svg" viewBox="0 0 265.29 25"><defs><style>.cls-1{fill:#231f20;}.cls-2{fill:#91c332;}.cls-3{font-size:15px;}.cls-4{letter-spacing:-0.01em;}.cls-5{letter-spacing:-0.02em;}.cls-6{letter-spacing:0em;}.cls-7{letter-spacing:-0.02em;}.cls-8{letter-spacing:-0.02em;}</style></defs><g id="Layer_2" data-name="Layer 2"><g id="Elements"><path class="cls-1" d="M258,16.39a2.75,2.75,0,0,0,.24,1.15,2.63,2.63,0,0,0,.62.9,2.6,2.6,0,0,0,.92.59,3.23,3.23,0,0,0,1.12.21h3.68a.67.67,0,0,1,.49.21.76.76,0,0,1,.2.5.73.73,0,0,1-.2.51.67.67,0,0,1-.49.21h-3.68a4.33,4.33,0,0,1-1.65-.32,4.24,4.24,0,0,1-2.61-4v-3.3a4.18,4.18,0,0,1,.34-1.71,4.32,4.32,0,0,1,.91-1.37,4,4,0,0,1,1.36-.89,4.15,4.15,0,0,1,1.65-.32h3.68a.67.67,0,0,1,.49.21.74.74,0,0,1,.2.5.73.73,0,0,1-.2.51.67.67,0,0,1-.49.21h-3.68a3.22,3.22,0,0,0-1.12.2,2.77,2.77,0,0,0-1.54,1.49,2.85,2.85,0,0,0-.24,1.17Z"/><path class="cls-1" d="M248.5,19.44a.64.64,0,0,0-.49-.21h-3.27V9.46a.61.61,0,0,0-.22-.48.71.71,0,0,0-1,0,.63.63,0,0,0-.21.48V20a.54.54,0,0,0,0,.22v0a.36.36,0,0,0,.07.1.46.46,0,0,0,.08.13.63.63,0,0,0,.48.21h4a.61.61,0,0,0,.49-.22.74.74,0,0,0,0-1Z"/><path class="cls-1" d="M256.1,19.44a.64.64,0,0,0-.49-.21h-3.27V9.46a.61.61,0,0,0-.22-.48.71.71,0,0,0-1,0,.63.63,0,0,0-.21.48V20a.54.54,0,0,0,0,.22v0a.86.86,0,0,0,.07.1.46.46,0,0,0,.08.13.63.63,0,0,0,.48.21h4a.61.61,0,0,0,.49-.22.68.68,0,0,0,.2-.5A.69.69,0,0,0,256.1,19.44Z"/><path class="cls-2" d="M96.7,19.61a7.14,7.14,0,0,0-3.34,1.68c-.49.44-.86,1-.65,1.4a13.59,13.59,0,0,0,.78,1.71c.35.54.47.71.73.53a13.91,13.91,0,0,0,2.88-5C97.14,19.65,97,19.57,96.7,19.61ZM116.29,0a34.57,34.57,0,0,0-5.7.77c-5,.89-11.14,2.67-14.12,6.69a8.53,8.53,0,0,0,1,11.47c2.6,2.82,8.06,3,12-.37C112.42,16.12,114,11.51,115,7c.36-1.64.77-3.35,1-4.85C116.15,1.4,116.52.08,116.29,0Z"/><path class="cls-1" d="M137.58,8.57a6.24,6.24,0,0,0-5.61,3,6.4,6.4,0,0,0-.78,3.21A6.8,6.8,0,0,0,132.67,19a5.92,5.92,0,0,0,4.61,1.91c1.87,0,3.88-.51,4.85-2.07a1,1,0,0,0-1.61-1.3,4.27,4.27,0,0,1-3.1,1.35,3.91,3.91,0,0,1-3.74-3.32h8.16c.58,0,1.26-.43,1.15-1.56s-1.36-5.45-5.41-5.45m-3.86,5.1a3.57,3.57,0,0,1,3.57-3.18,3.26,3.26,0,0,1,3.23,3.18Zm32.57-5.1a6.24,6.24,0,0,0-5.61,3,6.4,6.4,0,0,0-.78,3.21A6.8,6.8,0,0,0,161.38,19,5.92,5.92,0,0,0,166,20.92c1.86,0,3.88-.51,4.85-2.07a1,1,0,0,0-1.61-1.3,4.27,4.27,0,0,1-3.1,1.35,3.91,3.91,0,0,1-3.74-3.32h8.16c.58,0,1.26-.43,1.15-1.56s-1.36-5.45-5.41-5.45m-3.86,5.1A3.57,3.57,0,0,1,166,10.49a3.26,3.26,0,0,1,3.23,3.18ZM151.91,8.76a5,5,0,0,0-1.29-.19A4.21,4.21,0,0,0,147,10.49v-.36c0-1.34-.84-1.56-1.24-1.56a1.08,1.08,0,0,0-1.2,1.18v9.62c0,1.27.57,1.55,1.1,1.55A1.34,1.34,0,0,0,147,19.39V14.12A3.58,3.58,0,0,1,148.69,11a3.47,3.47,0,0,1,2.77,0,1.14,1.14,0,1,0,.45-2.23m-22.16-.07a1.4,1.4,0,0,0-1.91.9l-3.22,8.24c0,.1-.08.13-.13,0l-3.21-8.24a1.41,1.41,0,0,0-1.92-.9c-.58.34-.77.84-.46,1.8l3.74,9a2,2,0,0,0,1.92,1.46c1,0,1.45-.35,1.91-1.46l3.74-9c.31-1,.12-1.46-.46-1.8m29.52,10.15c-.5-.36-.88-.08-1.58,0-1,.08-1.32-1-1.32-1.74v-6.6h1.81c1.63,0,1.65-1.92.19-1.92h-2V6.71c0-1.08-.53-1.49-1.16-1.49s-1.28.41-1.28,1.49v9.88c0,2,.43,2.87,1.23,3.59a3.75,3.75,0,0,0,3.66.47c1.08-.45,1-1.46.45-1.81m19.88-4.2,3.35-3.9c.74-.86.66-1.42.26-1.9s-1.14-.62-2.07.45l-3,3.52-2.8-3.53a1.49,1.49,0,0,0-2.18-.52c-.53.47-.62,1-.09,2L176,14.86l-3.2,3.78c-.89.87-.82,1.69-.34,2.08s1.3.24,2-.55l3-3.51,2.83,3.51a1.61,1.61,0,0,0,2.06.61c.53-.31.85-1.19,0-2.12Z"/><path class="cls-1" d="M199.25,10a4.32,4.32,0,0,0-3.09-1.26,4,4,0,0,0-1.92.43,5.05,5.05,0,0,0-1.41,1.12,4.11,4.11,0,0,0-1.38-1.13,4.31,4.31,0,0,0-2-.42,4.25,4.25,0,0,0-1.71.34,4.3,4.3,0,0,0-1.36.92,4.24,4.24,0,0,0-1.22,3v7a.67.67,0,0,0,.21.49.69.69,0,0,0,.51.19.71.71,0,0,0,.5-.19.64.64,0,0,0,.22-.49V13a3.28,3.28,0,0,1,.2-1.13,2.91,2.91,0,0,1,.59-.92,3,3,0,0,1,.91-.63,2.91,2.91,0,0,1,1.15-.23,2.67,2.67,0,0,1,1.12.23,2.46,2.46,0,0,1,.82.63,2.79,2.79,0,0,1,.51.91,3.48,3.48,0,0,1,.19,1.13v7.05a.66.66,0,0,0,.2.49.78.78,0,0,0,1,0,.67.67,0,0,0,.21-.49V13a3.81,3.81,0,0,1,.17-1.13,2.43,2.43,0,0,1,.51-.92,2.37,2.37,0,0,1,.82-.63,2.59,2.59,0,0,1,1.11-.23,3,3,0,0,1,1.18.23,2.91,2.91,0,0,1,.9.63,2.74,2.74,0,0,1,.59.92A3.06,3.06,0,0,1,199,13v7a.7.7,0,0,0,.2.49.76.76,0,0,0,.52.19.73.73,0,0,0,.5-.19.67.67,0,0,0,.21-.49V13a4.16,4.16,0,0,0-.32-1.66A4,4,0,0,0,199.25,10Zm11.39.18a.73.73,0,0,0,.52-.21.64.64,0,0,0,.2-.47.63.63,0,0,0-.2-.49.73.73,0,0,0-.52-.21h-7.58a.69.69,0,0,0-.51.21.64.64,0,0,0-.21.49V20.05a.64.64,0,0,0,.22.49.71.71,0,0,0,.5.19h7.58a.69.69,0,0,0,.52-.21.68.68,0,0,0,0-1,.72.72,0,0,0-.52-.2h-6.86V15.64h4a.74.74,0,0,0,.51-.21.68.68,0,0,0,0-1,.72.72,0,0,0-.51-.19h-4V10.17Zm10-.13a4.53,4.53,0,0,0-1.44-.91,4.71,4.71,0,0,0-1.76-.34h-3.78a.69.69,0,0,0-.51.21.64.64,0,0,0-.21.49V20.05a.64.64,0,0,0,.22.49.71.71,0,0,0,.5.19h3.8a4.74,4.74,0,0,0,1.76-.33,4.55,4.55,0,0,0,1.42-.91,4.47,4.47,0,0,0,1-1.35,4,4,0,0,0,.35-1.66V13.05a4,4,0,0,0-.35-1.66A4.47,4.47,0,0,0,220.65,10Zm-.11,6.44a2.62,2.62,0,0,1-.24,1.12,2.75,2.75,0,0,1-.65.92,3.06,3.06,0,0,1-1,.61,3.17,3.17,0,0,1-1.2.23h-3.08V10.17h3.06a3.22,3.22,0,0,1,1.21.23,2.88,2.88,0,0,1,1.64,1.52,2.7,2.7,0,0,1,.24,1.13Zm4.52-7.69a.69.69,0,0,0-.51.21.64.64,0,0,0-.21.49V20.05a.64.64,0,0,0,.22.49.71.71,0,0,0,.5.19.72.72,0,0,0,.51-.19.67.67,0,0,0,.21-.49V9.49a.61.61,0,0,0-.22-.49A.69.69,0,0,0,225.06,8.79Zm13.34,11L233.64,9.14a.67.67,0,0,0-.38-.36.76.76,0,0,0-.28,0,.67.67,0,0,0-.67.41l-4.76,10.65a.79.79,0,0,0-.06.29.74.74,0,0,0,.19.46.64.64,0,0,0,.51.21.87.87,0,0,0,.39-.1.71.71,0,0,0,.27-.32l4.13-9.2,4.12,9.2a.74.74,0,0,0,1.18.21.72.72,0,0,0,.18-.46A.63.63,0,0,0,238.4,19.79Z"/><text class="cls-3" transform="translate(0 18.36)"><tspan class="cls-4">P</tspan><tspan class="cls-5" x="9.44" y="0">ow</tspan><tspan class="cls-6" x="30.02" y="0">e</tspan><tspan class="cls-7" x="38.76" y="0">r</tspan><tspan x="44.08" y="0">ed </tspan><tspan class="cls-8" x="66.35" y="0">b</tspan><tspan x="75.36" y="0">y</tspan></text></g></g></svg>