<svg xmlns="http://www.w3.org/2000/svg" viewBox="0 0 540 360"><defs><style>.cls-1{fill:#f7f7f7;}.cls-2{fill:#fff;}.cls-3{fill:#207245;}.cls-4{font-size:31.3px;font-family:Inter-Bold, Inter;font-weight:700;}.cls-5{letter-spacing:-0.01em;}.cls-6{letter-spacing:-0.01em;}.cls-7{letter-spacing:-0.02em;}.cls-8{letter-spacing:0em;}.cls-9{letter-spacing:-0.08em;}</style></defs><g id="Layer_2" data-name="Layer 2"><g id="Elements"><rect class="cls-1" width="540" height="360" rx="5"/><path class="cls-2" d="M474.62,12.27h-74c-17.69,41.58-37,82.51-50.43,125.7-13.14-42.78-30.26-84-46.32-125.7H227.45c25.87,56.87,53.27,113,78.27,170.25-29,54.7-56.22,110.15-84.27,165.21H296.4c17.05-42.12,37.29-83,51.74-126.12,12.24,43.74,32,84.55,49.77,126.12h78.2c-27.87-56.27-56.06-112.28-83.75-168.62Q433.82,95.84,474.62,12.27Z"/><path class="cls-3" d="M124.5,132.71h5.25v7.07c8.84,0,17.68,0,26.53,0,1.49.06,3.13,0,4.43.85.91,1.31.81,3,.87,4.47q-.06,23,0,46c0,2.57.24,5.2-.3,7.73-.35,1.84-2.56,1.88-4,1.95-9.15,0-18.31,0-27.47,0v7.94h-5.49c-13.46-2.44-27-4.7-40.44-7.06V139.79C97.39,137.43,111,135.11,124.5,132.71Z"/><path class="cls-2" d="M129.75,142.43H158.9v55.64H129.75v-5.3h7.07v-6.19h-7.07v-3.53h7.07v-6.18h-7.07v-3.53h7.07v-6.18h-7.07v-3.54h7.07v-6.18h-7.07v-3.53h7.07v-6.18h-7.07Z"/><path class="cls-3" d="M140.35,147.73h12.37v6.18H140.35Z"/><path class="cls-2" d="M110,156q3-.21,6-.36-3.54,7.25-7.13,14.47c2.43,4.95,4.91,9.86,7.35,14.81-2.13-.13-4.25-.26-6.38-.41-1.5-3.68-3.33-7.24-4.41-11.09-1.2,3.58-2.91,7-4.29,10.48-1.93,0-3.87-.11-5.8-.19,2.27-4.44,4.46-8.92,6.8-13.33-2-4.55-4.17-9-6.22-13.53l5.83-.34c1.32,3.46,2.75,6.86,3.84,10.41,1.17-3.76,2.91-7.29,4.4-10.92Z"/><path class="cls-3" d="M140.35,157.44h12.37v6.18H140.35Zm0,9.72h12.37v6.18H140.35Zm0,9.71h12.37v6.18H140.35Zm0,9.71h12.37v6.19H140.35Z"/><path class="cls-3" d="M88.68,111a4.84,4.84,0,1,1,3.4-8.25,4.7,4.7,0,0,1,.78,5.84,5.23,5.23,0,0,1-1.77,1.76A4.66,4.66,0,0,1,88.68,111Z"/><path class="cls-3" d="M107.81,79.38l5.71,10.86,5.85-10.86h8.84l-9,15.54,9.25,15.54h-8.8l-6.13-10.75-6,10.75h-8.9l9.23-15.54L98.9,79.38Z"/><path class="cls-3" d="M141.93,69v41.44h-8.62V69Z"/><path class="cls-3" d="M174.68,88.24l-7.89.49a4.2,4.2,0,0,0-.87-1.83,4.8,4.8,0,0,0-1.75-1.32,6.23,6.23,0,0,0-2.59-.5,6.4,6.4,0,0,0-3.38.84,2.55,2.55,0,0,0-1.37,2.24,2.37,2.37,0,0,0,.89,1.88,7.06,7.06,0,0,0,3.05,1.24l5.63,1.13a14,14,0,0,1,6.76,3,7.05,7.05,0,0,1,2.23,5.43,8.53,8.53,0,0,1-1.79,5.36,11.76,11.76,0,0,1-4.9,3.59,18.56,18.56,0,0,1-7.16,1.28q-6.16,0-9.82-2.58a10,10,0,0,1-4.28-7l8.48-.44a4.27,4.27,0,0,0,1.86,2.86,7.91,7.91,0,0,0,7.44.1,2.65,2.65,0,0,0,1.4-2.27,2.4,2.4,0,0,0-1-1.94,7.23,7.23,0,0,0-3-1.16l-5.39-1.07a12.87,12.87,0,0,1-6.77-3.16,7.83,7.83,0,0,1-2.21-5.72,8.3,8.3,0,0,1,1.63-5.16,10.21,10.21,0,0,1,4.59-3.34A18.87,18.87,0,0,1,161.44,79q5.9,0,9.28,2.49A9.64,9.64,0,0,1,174.68,88.24Z"/><path class="cls-3" d="M188,79.38l5.71,10.86,5.85-10.86h8.84l-9,15.54,9.25,15.54h-8.8l-6.13-10.75-6,10.75h-8.91L188,94.92l-8.91-15.54Z"/><text class="cls-4" transform="translate(191.96 163.45)">H<tspan class="cls-5" x="23.35" y="0">o</tspan><tspan x="42.13" y="0">w </tspan><tspan class="cls-6" x="75.99" y="0">t</tspan><tspan x="87.98" y="0">o Edit</tspan><tspan class="cls-3"><tspan x="0" y="37.56">E</tspan><tspan class="cls-7" x="19.17" y="37.56">x</tspan><tspan class="cls-8" x="36.5" y="37.56">cel </tspan><tspan class="cls-9" x="89.35" y="37.56">T</tspan><tspan x="107.78" y="37.56">empla</tspan><tspan class="cls-6" x="201.49" y="37.56">t</tspan><tspan x="213.47" y="37.56">e</tspan></tspan></text></g></g></svg>