<svg xmlns="http://www.w3.org/2000/svg" xmlns:xlink="http://www.w3.org/1999/xlink" viewBox="0 0 540 360"><defs><style>.cls-1{fill:#f7f7f7;}.cls-2{fill:#cce8f5;}.cls-3{fill:url(#radial-gradient);}.cls-4{fill:#38c3eb;}.cls-5{font-size:23.65px;}.cls-5,.cls-8{font-family:Inter-Bold, Inter;font-weight:700;}.cls-6{letter-spacing:-0.01em;}.cls-7{letter-spacing:-0.01em;}.cls-8{font-size:25.17px;fill:#007bff;}.cls-9{letter-spacing:-0.01em;}.cls-10{letter-spacing:-0.08em;}</style><radialGradient id="radial-gradient" cx="911.49" cy="-955.27" r="0.02" gradientTransform="matrix(3437.51, 0, 0, -3326.93, -3133124.47, -3178033.86)" gradientUnits="userSpaceOnUse"><stop offset="0" stop-color="#35364e" stop-opacity="0.98"/><stop offset="1" stop-color="#151325"/></radialGradient></defs><g id="Layer_2" data-name="Layer 2"><g id="Elements"><rect class="cls-1" width="540" height="360" rx="5"/><path class="cls-2" d="M249.18,296.84a12.74,12.74,0,0,1-12.69-12.69,12.06,12.06,0,0,1,3.73-8.87,12.6,12.6,0,0,1,17.84,0,12.28,12.28,0,0,1,2,15.24,13.58,13.58,0,0,1-4.63,4.6A12,12,0,0,1,249.18,296.84Z"/><path class="cls-2" d="M271.38,325.9V214.3h22.21v13.63h1a30.1,30.1,0,0,1,4.31-6.69,22.58,22.58,0,0,1,7.4-5.7,25.15,25.15,0,0,1,11.39-2.3,30.7,30.7,0,0,1,16.39,4.62,32.42,32.42,0,0,1,12,13.9q4.49,9.27,4.49,23.22,0,13.59-4.36,22.91A32.55,32.55,0,0,1,334.37,292a30.39,30.39,0,0,1-16.73,4.78,25.93,25.93,0,0,1-11.13-2.16,22.91,22.91,0,0,1-7.48-5.47,27,27,0,0,1-4.44-6.69h-.69V325.9Zm22.05-71a36.07,36.07,0,0,0,2,12.63,18.55,18.55,0,0,0,5.81,8.37,15.79,15.79,0,0,0,18.56-.05,18.74,18.74,0,0,0,5.78-8.45,40.13,40.13,0,0,0,0-24.87,18.42,18.42,0,0,0-5.76-8.35,16.14,16.14,0,0,0-18.63-.1,18.14,18.14,0,0,0-5.79,8.24A35.66,35.66,0,0,0,293.43,254.88Z"/><path class="cls-2" d="M424.16,237.44l-20.62,1.27a10.8,10.8,0,0,0-2.27-4.78,12.54,12.54,0,0,0-4.57-3.44A16.19,16.19,0,0,0,390,229.2a16.65,16.65,0,0,0-8.82,2.19,6.61,6.61,0,0,0-3.6,5.84,6.23,6.23,0,0,0,2.33,4.91q2.33,2,8,3.23l14.7,3q11.83,2.43,17.65,7.82T426,270.31a22.15,22.15,0,0,1-4.68,14,30.46,30.46,0,0,1-12.79,9.38,48.54,48.54,0,0,1-18.69,3.36q-16.12,0-25.66-6.74A26,26,0,0,1,353,272l22.15-1.17a11.26,11.26,0,0,0,4.87,7.48,20.59,20.59,0,0,0,19.42.27c2.42-1.54,3.64-3.52,3.68-5.95a6.33,6.33,0,0,0-2.59-5.05q-2.53-2-7.83-3l-14.06-2.8q-11.89-2.38-17.68-8.25t-5.79-14.95A21.76,21.76,0,0,1,359.43,225a27,27,0,0,1,12-8.72,49.23,49.23,0,0,1,18.16-3.06q15.38,0,24.23,6.5A25.14,25.14,0,0,1,424.16,237.44Z"/><path class="cls-2" d="M461.21,296.78A30.41,30.41,0,0,1,444.48,292a32.62,32.62,0,0,1-11.84-14.11q-4.35-9.33-4.36-22.91,0-13.95,4.49-23.22a32.45,32.45,0,0,1,12-13.9,30.62,30.62,0,0,1,16.41-4.62,25.09,25.09,0,0,1,11.39,2.3,22.58,22.58,0,0,1,7.4,5.7,29.74,29.74,0,0,1,4.31,6.69H485V187.24h22.47V295.46H485.21v-13h-.95a28.56,28.56,0,0,1-4.46,6.69,22.72,22.72,0,0,1-7.46,5.47A25.93,25.93,0,0,1,461.21,296.78Zm7.14-17.91a14.44,14.44,0,0,0,9.23-3,18.86,18.86,0,0,0,5.81-8.37,40.24,40.24,0,0,0,0-25.21,18,18,0,0,0-5.82-8.24,16.11,16.11,0,0,0-18.61.1,18.58,18.58,0,0,0-5.76,8.35,40.33,40.33,0,0,0,0,24.87,18.79,18.79,0,0,0,5.76,8.45A14.39,14.39,0,0,0,468.35,278.87Z"/><path class="cls-3" d="M82.42,66.25h93v90.41h-93Z"/><path class="cls-4" d="M82.42,66.25h93v90.41h-93Zm-4.23,94.63H179.62V62H78.19Zm68.38-58.3c-3.34,0-4.48,1.69-4.48,3.08s.76,2.58,5.24,4.9c6.64,3.22,8.71,6.3,8.71,10.82,0,6.76-5.16,10.39-12.13,10.39a18.43,18.43,0,0,1-8.66-1.81c-.3-.13-.34-.34-.34-.68v-6.21c0-.42.21-.55.51-.34a15.68,15.68,0,0,0,8.49,2.49c3.34,0,4.73-1.39,4.73-3.29,0-1.52-1-2.87-5.24-5.07-6-2.87-8.49-5.79-8.49-10.65,0-5.45,4.27-10,11.66-10a19.32,19.32,0,0,1,7.57,1.19.93.93,0,0,1,.42.84v5.79c0,.34-.21.55-.63.42a14.32,14.32,0,0,0-7.36-1.9Zm-36.34,5c1,.08,1.73.08,3.42.08,4.95,0,9.59-1.73,9.59-8.45,0-5.36-3.33-8.07-8.95-8.07-1.7,0-3.3.09-4.06.13Zm-7.52-22.43c0-.3.59-.51.93-.51,2.7-.13,6.71-.21,10.9-.21,11.7,0,16.27,6.42,16.27,14.61,0,10.73-7.78,15.34-17.33,15.34-1.6,0-2.15-.09-3.29-.09v16.23c0,.34-.13.5-.51.5h-6.47c-.34,0-.5-.12-.5-.5V85.18Z"/><text class="cls-5" transform="translate(181.92 262.5)">H<tspan class="cls-6" x="17.65" y="0">o</tspan><tspan x="31.84" y="0">w </tspan><tspan class="cls-7" x="57.43" y="0">t</tspan><tspan x="66.48" y="0">o Edit</tspan></text><text class="cls-8" transform="translate(208.91 105.16)">Pho<tspan class="cls-9" x="47.47" y="0">t</tspan><tspan x="57.1" y="0">oshop</tspan><tspan class="cls-10" x="0" y="27.21">T</tspan><tspan x="14.82" y="27.21">empla</tspan><tspan class="cls-9" x="90.19" y="27.21">t</tspan><tspan x="99.83" y="27.21">e</tspan></text></g></g></svg>