<svg xmlns="http://www.w3.org/2000/svg" viewBox="0 0 540 360"><defs><style>.cls-1{fill:#66b8ff;}.cls-2{font-size:88.62px;}.cls-10,.cls-2,.cls-6{fill:#fff;}.cls-2,.cls-6{font-family:Inter-Bold, Inter;font-weight:700;}.cls-3{letter-spacing:-0.04em;}.cls-4{letter-spacing:-0.02em;}.cls-5{letter-spacing:-0.01em;}.cls-6{font-size:20.13px;}.cls-7{letter-spacing:-0.01em;}.cls-8{letter-spacing:0em;}.cls-9{letter-spacing:-0.01em;}</style></defs><g id="Layer_2" data-name="Layer 2"><g id="Elements"><rect class="cls-1" width="540" height="360" rx="5"/><text class="cls-2" transform="translate(85.63 213.46)"><tspan class="cls-3">K</tspan><tspan class="cls-4" x="57.59" y="0">e</tspan><tspan x="109.2" y="0">yno</tspan><tspan class="cls-5" x="270.6" y="0">t</tspan><tspan x="304.52" y="0">e</tspan></text><text class="cls-6" transform="translate(326.88 247.9)">H<tspan class="cls-7" x="15.02" y="0">o</tspan><tspan class="cls-8" x="27.1" y="0">w </tspan><tspan class="cls-9" x="48.89" y="0">t</tspan><tspan x="56.59" y="0">o Edit</tspan></text><path class="cls-10" d="M374.24,120.42c.91,2.19,1.91,3.46,4.27,3.46h52.54c2.64,0,3.45-1,4.45-3.46Zm42.63,30.09H407.6c-1.55,0-1.46-.54-1.46-2V125.79h-3l-.09,22.09c0,1.81,0,2.45-1.91,2.45h-8.9c-2.73,0-2.28,3,.09,3H417C419.32,153.33,419.32,150.51,416.87,150.51Zm14.82-51.63c-.1-3.36-.28-5-4.09-5H384.72V89.29c0-1.61.77-2.43,2.3-2.43h7a2.89,2.89,0,0,0,2.87,2.52h5.28a2.91,2.91,0,1,0,0-5.81h-5.28a2.91,2.91,0,0,0-2.73,1.93H387c-2.3,0-3.66,1.42-3.66,3.79v4.59H382c-1.9,0-3.81.18-4,2.82l-.63,21.73h55Z"/></g></g></svg>